/* XPM */
static char *e63f26d71cd2474f9fcc66c33b3080d6rKq74OyZ4214L3GV[] = {
/* columns rows colors chars-per-pixel */
"64 64 205 2 ",
"   c #2E1307",
".  c #2E1108",
"X  c #311307",
"o  c #311509",
"O  c #3C1B0B",
"+  c #38190A",
"@  c #251F10",
"#  c #391C10",
"$  c #21220F",
"%  c #2D2B19",
"&  c #3C2616",
"*  c #3D271A",
"=  c #3D281A",
"-  c #362D1C",
";  c #3B321F",
":  c #363721",
">  c #3C3622",
",  c #3F3A24",
"<  c #3B3B28",
"1  c #3B2720",
"2  c #432616",
"3  c #422816",
"4  c #422719",
"5  c #432818",
"6  c #40321F",
"7  c #4A331B",
"8  c #583B1D",
"9  c #43220F",
"0  c #433C24",
"q  c #4C3D22",
"w  c #4A3F29",
"e  c #443525",
"r  c #543B22",
"t  c #5A3F25",
"y  c #573829",
"u  c #4E3127",
"i  c #613F22",
"p  c #4D4226",
"a  c #4C432C",
"s  c #45422B",
"d  c #554025",
"f  c #5F4027",
"g  c #53422A",
"h  c #5B442B",
"j  c #5C4A2F",
"k  c #4B4935",
"l  c #474B3A",
"z  c #4A4C3C",
"x  c #5F4C32",
"c  c #544C34",
"v  c #56513D",
"b  c #5F5139",
"n  c #5C5135",
"m  c #634225",
"M  c #64452B",
"N  c #6A452A",
"B  c #65492E",
"V  c #6A4626",
"C  c #714728",
"Z  c #744A2C",
"A  c #7B4F2E",
"S  c #614934",
"D  c #754E34",
"F  c #63523A",
"G  c #6B553A",
"H  c #725136",
"J  c #7D5133",
"K  c #78583B",
"L  c #4F5241",
"P  c #525544",
"I  c #5D5640",
"U  c #555847",
"Y  c #57594A",
"T  c #5B5D4C",
"R  c #5F5B47",
"E  c #6C5D43",
"W  c #6B5F49",
"Q  c #625240",
"!  c #745D42",
"~  c #7B5D43",
"^  c #5E624E",
"/  c #5F6250",
"(  c #6F6045",
")  c #63624E",
"_  c #6D624B",
"`  c #746245",
"'  c #7B6246",
"]  c #74624A",
"[  c #7A644A",
"{  c #76694C",
"}  c #7C6B4D",
"|  c #646753",
" . c #6B6B55",
".. c #6A6D59",
"X. c #6B6752",
"o. c #736551",
"O. c #776855",
"+. c #7C6B52",
"@. c #7D6D5B",
"#. c #6E705B",
"$. c #72735E",
"%. c #7B745C",
"&. c #757662",
"*. c #797461",
"=. c #7C7B64",
"-. c #757868",
";. c #7B7C6D",
":. c #815A3E",
">. c #8B5C3D",
",. c #845F42",
"<. c #925F44",
"1. c #846246",
"2. c #8A6649",
"3. c #846A4E",
"4. c #8C6B4E",
"5. c #866247",
"6. c #826C51",
"7. c #9C6E53",
"8. c #936C50",
"9. c #837154",
"0. c #83765B",
"q. c #8B765A",
"w. c #8D755A",
"e. c #957455",
"r. c #99765C",
"t. c #96775D",
"y. c #827C64",
"u. c #8D7A63",
"i. c #827F6A",
"p. c #897F6D",
"a. c #927D63",
"s. c #9F7E62",
"d. c #807D71",
"f. c #A27F63",
"g. c #AA7F63",
"h. c #7F816E",
"j. c #83826D",
"k. c #8C846D",
"l. c #8F896F",
"z. c #938167",
"x. c #998067",
"c. c #908368",
"v. c #9C856C",
"b. c #90886D",
"n. c #9B886F",
"m. c #868873",
"M. c #8E8D73",
"N. c #8B8D7A",
"B. c #878473",
"V. c #928D73",
"C. c #9D8B72",
"Z. c #988F7D",
"A. c #8E917D",
"S. c #939075",
"D. c #94937D",
"F. c #9F917B",
"G. c #A78669",
"H. c #A78669",
"J. c #A48C74",
"K. c #A98E78",
"L. c #B08D72",
"P. c #AD9070",
"I. c #A49379",
"U. c #B39378",
"Y. c #959581",
"T. c #999682",
"R. c #969984",
"E. c #9C9B85",
"W. c #9C9D8A",
"Q. c #9F958E",
"!. c #948982",
"~. c #AE9A82",
"^. c #A29D8C",
"/. c #A79A8B",
"(. c #B69F88",
"). c #B99A83",
"_. c #9EA18C",
"`. c #9FA092",
"'. c #A0A38E",
"]. c #A9A28B",
"[. c #B5A28A",
"{. c #A2A493",
"}. c #A5A896",
"|. c #A8A79A",
" X c #A7A999",
".X c #AAAB9C",
"XX c #A2A498",
"oX c #B7A994",
"OX c #ACAFA1",
"+X c #AEB0A2",
"@X c #B7B9AB",
"#X c #B9BBAE",
"$X c #B3B5A7",
"%X c #BCBDB1",
"&X c #CBA085",
"*X c #C2AF97",
"=X c #BEC0B2",
"-X c #C2C4B9",
";X c #CBCCC3",
":X c #CDD0C6",
">X c #D1CFCD",
",X c #E2DDDA",
"<X c #FFFFFF",
"1X c #E7E1E0",
"2X c #E6E1DF",
/* pixels */
"W.{.}..X+X@X@X=X=X=X;X;X;X;X:X:X;X-X%X#X@X@XOXOXOX X`.^.^./.T.<X<XW.'.}..X+X@X@X#X-X-X-X;X;X;X:X:X;X-X%X#X@X@XOXOX.X X`.^.^./.T.",
"W.W.{.}.}..X+X$X$X=X%X%X#X%XOXXXXXN.;.;.;.B.N.`. X{.W.W.W.W.D././.W.'.'.}.}..X+X$X$X#X#X#X-X%XOXXXXXN.;.;.;.m.Y.`.XX{.W.W.Q.W.D.",
"E.^._.'.}.}.}..X.X+X+X+X X-.T ..h.R X.o.W Q c v &.W.W.E.E.R.D.3 4 T.^._.'.}.}.}..XOXOX+X+X}.=.T #.;.R X.o._ F c v *.W.W.W.E.W.D.",
"E.E.'.'._._.}._.}.}..X.X;.k k X.k.u.x.t.6.! x g I T.W.E.E.E.D.2 4 ^.E.^.'.'.'.}.{.|.|.|.|.d.k k X.B.u.s.t.6.! j g I R.W.E.R.E.D.",
"F.E.W._._._._._.{.{.XX/.*.O.6.w.H.G.t.4.K B B d w p.W.D.A.D.N.3 3 _.D._._.W._._.'._.{.XX/.*.O.6.w.H.G.r.4.K B B y w k._.D.A.A.A.",
"D.R.R.W.R.R._._.W.W.W.T.o.~ ~ 3.G.G.r.5.H K 3.F Q Y.T.N.N.N.m.3 9 D.D._.E._.R._.W.W.W.W.T.o.[ ' 3.H.f.r.5.H K 6.F F D.T.A.N.N.m.",
"D.D.R.R.R.R.W._.E.W.T.y.W [ [ [ } G ' ' ! ! S h @.Z.Z.B.m.j.h.3 3 S.D.R.D._.R._.E.W.W.E.i._ [ ' ~ } G ' ' ! K S h @.Z.S.m.h.j.j.",
"D.D.D.R.R.E.F.].oX/.I.Z.q.F x x n q q p g g q b p.M.B.y.=.-.-.3 4 D.D.D.D.E.D.D.].oX/.I.V.q.F S x n q w p p g q b k.m.k.h.=.h.&.",
"M.S.S.D.D.S.V.I.I.v.C.~.[.J.6.9.O.p 0 0 > ; a *.j.j.j.$.#.$.#.3 4 M.M.D.D.D.S.V.I.I.n.C.U.[.I.6.9.o.p 0 , > < s &.i.j.j.&.$.$.#.",
"M.M.M.b.b.k.x.a.a.a.v.I.I.~.[.*XoXu.S a a v  .=.y.=.*.$.#.#...& 4 V.l.M.M.l.z.z.x.a.z.v.I.I.~.[.*XoXu.S a a I O.*.;.=.*.$...#...",
"S.M.k.%.0.q.u.a.u.q.a.x.v.C.K.U.v.w.! h g k v ) $.&.#.....| | 3 3 M.S.k.0.9.q.u.a.q.q.a.z.n.C.U.U.v.w.! h g k v ) %.$.$. ...| | ",
"S.l.%.+.[ 3.} } 6.9.q.q.a.J.).L.e.8.K M d a 0 : P  .| ^ ^ / T 2 2 S.l.%.+.[ } +.6.9.9.q.q.t.J.U.L.e.4.:.B r w < : P  .| ^ ^ / ^ ",
"l.0.+.[ ' [ [ } } 0.3.` [ f.P.e.:.:.A m u w % $ < T ^ T Y Y Y 2 2 k.0.@.[ [ [ [ { } 0.6.` ' G.G.r.,.:.D i r w % $ < T ^ Y Y Y U ",
"k.0.[ G G ] [ } 6.9.3.` ' f.U.f.>.:.V 8 7 w , @ - z U U U U U & 2 k.0.] G G [ [ { 9.9.6.! [ G.U.f.5.J V 8 7 w 0 $ - z Y U U U U ",
"k.y.] F S ] [ } } } } ` K r.L.&XG.>.Z m r g ; - k U U z L L P 3 2 k.0.] F S ] [ } } } } ' ~ r.H.&Xg.>.Z m r w ; - l U L L L z U ",
"j.=.W F x ` [ ` { } } [ ` ' 7.g.7.>.A C m d > > z P L z l z P 3 2 j.y.W S x ` [ ` [ } } ` ` 1.e.g.7.>.A C i t > > L P L z l z L ",
"y.i.%.W n E ! ] { } { { ` ` 1.8.7.<.:.C V m 7 e k z z l l l z 5 9 j.=.%.W b E _ ` { } } { ` ` 1.8.7.<.J Z N t 7 e k k z l k z z ",
"=.i.=.i.%.( E E ` ] ` ( ` ` ' 1.5.2.:.A C N r q q p k k l z z 5 3 h.y.j.=.%.( E E ] ` ` ` ` ` ' 5.2.2.:.J Z N t q q a k l l z z ",
"%.=.=.=.%.%._ E E ` ! ` ` ` ' } ' K ' H B M t t d p p s k l l 4 & *.*.=.=.%.%.] E ( E ! ` ! ] [ 3.' ~ ~ D B M f t r q w s k l z ",
"1XS O + O O O + O + O + + + O O O + O O O O O O + + + O + 9 5 = 4 4 & O O O O O O O O 9 O + O + O O O O 9 O O O O O O O O O h 2X",
"<XQ.= = = = = = * * = & * * = = * = = = = = = = & * * = = * = = = = & = * * * * * = * & * * * & * & * 4 * * * = * & * & * & !.<X",
"<X/.& & 3 3 3 & 2 & & 2 2 4 = = = = = 4 4 4 4 2 & 2 2 & & 4 = 4 = 3 = & 4 * * 2 2 * 4 3 & 2 * & & * = 4 4 4 2 2 2 2 2 & * & !.<X",
";X=X%X#X@X@X+X.XOX X/.W.W./.^.& * W.'.}..X+X$X@X#X-X-X;X;X;X;X:X:X;X-X%X#X@X@X+XOX.X X`.^.W.^.E.* W.`.}.OX+X$X#X#X%X-X;X;X;X;X:X",
"`.!.;.;.;.N.A.`. X`.`.W.E.E.D.= 4 W.'.'.}..X.X+X$X$X#X%X%X%X%XOXXXXXN.;.;.;.N.N.`.|.{.W.W.^.E.D.& E._.{.{..XOX+X$X$X#X%X%X=X%X.X",
"h.R X.o.W F c v &.W.W.E.E.W.D.4 4 E.^._._.}.}.}..X.X+X+X+X X-.T ..h.R X.o.W F c v &.W.W.E.E.W.Y.& _._._._.}.}.}..XOXOX+X+X X-.T ",
"B.u.x.t.3.! x g I T.W.E.R.E.D.3 * E.E.^._._._.}.}.}. X.X|.d.k k X.k.u.s.a.3.K S g Q T.W.E.E.R.S.3 F.D._.'._._._.{.{.|.|..Xd.k k ",
"H.G.s.4.H B B t w k.E.Y.A.A.A.4 4 D.T.W._.R._._._.`.`.{./.*.O.6.w.H.H.r.4.K B S y w p.W.D.A.A.A.5 D.R._._._._._.{._.{.{.`.*.O.6.",
"H.s.r.1.H K 6.F Q D.T.N.N.N.m.4 4 D.R.W._.R.W._._.W.W.W.T.o.[ ' 3.H.f.r.1.H K 6.F Q Y.T.A.A.N.m.5 E.R.D._._._._._.W.W.W.T.o.~ [ ",
"} G ' ' ! ! S h @.Z.D.m.j.j.j.4 = D.D.Y.R.R.R._.W.E.E.T.j.( [ ' ` 3.G ` ' ! ! B h @.D.S.m.h.h.h.5 D.Y.Y.R.R.R._.E.E.Q.E.y.W ~ [ ",
"n q q p p g q b p.M.B.i.=.=.&.* 4 D.D.R.D.R.W.I.].oX].F.C.0.F S j n q p p q g q b k.M.B.h.=.h.-.4 D.D.Y.R.T.T.F.].oX/.F.C.u.F S ",
"{ a 0 , > , a &.i.p.i.*.$.$.#.= = M.M.S.D.D.S.S.F.I.n.n.~.[.J.9.+.{ p , ; > , s *.j.j.j.$.$.$.#.4 l.M.D.D.D.S.V.I.I.C.C.~.(.J.9.",
"oXa.b a a I  .=.=.;.*.#.#.#...= * V.M.M.M.b.c.z.z.t.z.v.I.I.~.(.*XoXc.b g k b ..*.=.=.%.#.#.#.#.5 M.M.M.V.b.c.z.z.a.a.v.I.I.~.(.",
"f.e.! j g k v ) $.&... . .| | 2 * V.M.k.%.0.q.u.a.q.q.t.z.v.J.P.U.H.w.~ h a k v | $.$.$. . ...| 4 M.M.k.9.0.q.u.u.t.q.t.z.v.n.P.",
"w.2.~ N r p , ; P ..| / / / T & * V.M.%.+.[ } 3.9.9.9.q.w.z.J.U.L.w.2.:.N r w 0 > P  .| | T / T 4 Z.l.%.O.O.} 3.9.+.9.q.q.z.J.).",
",.,.D i q w % $ < R / T T Y U 2 4 k.0.+.[ ~ [ [ { } 0.9.` ' G.G.e.,.:.D t r w % $ < T T Y T Y U 4 l.0.+.[ ~ [ [ { } q.9.` ' G.P.",
"<.J V 8 7 a < $ % L Y P P P U 4 4 b.y.[ G F [ ' } 9.9.3.' ' G.U.G.5.J V 8 7 a e @ % L U P P P P 4 l.%.[ G G ] [ { 6.9.6.` ' f.P.",
"g.>.Z i 8 a ; - z P P P L L U 4 = k.y.] F S ` O.{ } } } ` ~ r.G.&Xg.>.C m r g ; - k P P L L L L 4 k.0.] F S ] [ { } } } ` K t.L.",
"7.,.A C f y ; , z P L z l z L 4 * j.y.W F x ! [ ` ' } } ` ` 1.e.g.7.>.A C i r 6 , z P L z l L L 4 p.y.W F x [ ' { { } } ' ` 1.e.",
"7.<.:.C N t 7 e k l z l l z z 4 4 i.i.%.W n E _ ` { } { { ` ! 1.8.7.<.:.Z N f 7 e k l z l l z L 4 j.i.%.W n E W ` [ { } ` { K 1.",
"5.<.,.A Z N r 8 w a k k l z z 4 3 =.y.=.=.%.( ( G ` { ` ( ` ` ' 5.5.2.:.J D N r q q a k l l l z 4 =.i.=.=.%.W E G ` ` ` ` ` ` ` ",
"~ ~ ~ D B i t t d q p s k k l = = *.*.=.=.=.%.{ ( ( ( ! ] ! ] [ } ~ ~ ~ H B M t r d p q s k l l = =.=.=.y.=.%._ ( ( ! ] ! ! ] [ ",
",Xu   . . . . . . .       + = = = 4 # . X . . . . . .   . . . o X   . . . . . . . .     . # & 4 * * O o X X X X   o o o . o u ,X",
"<XQ.& * 1 = * 4 = = * 4 * * * = = = = = = = = = = = = = = = = = = = & & 4 = = 3 = = * = 4 4 4 = * 1 4 & & & 4 = & = = = * & !.<X",
"<X/.4 4 4 4 4 4 3 3 4 3 2 4 & 4 4 4 4 4 3 & 3 3 3 3 4 5 3 * = = = = = 3 3 3 3 3 5 5 4 3 5 5 5 5 4 5 5 5 3 3 5 5 3 3 3 5 4 & !.<X",
"_.'.}..X+X@X@X#X=X-X-X;X;X;X;X>X;X-X%X#X@X@X+XOX.X X{.W.^.^.E.= = _.'.}..X+X@X@X#X=X-X;X;X;X:X:X:X;X-X%X#X#X$XOXOX.X|.{.W.W.^./.",
"E.'.'.}..X.X+X$X#X#X%X=X-X%XOXXXXXN.;.;.;.N.A.`. X{.W.Q.E.E.T.3 4 W.'.'.}.}..X+X$X@X#X%X%X#X%XOXXXXXN.;.;.;.N.N.`. X{._.W.Q.E.D.",
"E.'._.'.}.}.}..X.X+X+X+X{.-.R ..;.W X.o.W b c v &.W.W.E.E.W.T.3 2 T._.'.'.}.}.}..XOXOXOX+X|.*.T ..d.W X.o._ F k v *.W.E.W.W.E.Y.",
"^.E._._._.`.{.}.}.|.|.|.d.z k X.p.y.x.t.6.! j g b R.W.E.E.T.D.3 2 /.E.'.'.'.'.{.{.}.|..X|.d.k k X.k.u.a.t.3.! j g I D._.T.R.T.D.",
"D.E.E._._._._._._._.XX/.*.O.6.8.H.G.s.4.H B B d a p.W.D.A.A.A.3 7 D.R.R._._._.'._.`./.XX`.*.O.6.8.H.H.s.4.K B B g q p.W.D.D.D.N.",
"D.E.R.E._._._.R._._.W.F.o.] [ 6.G.f.r.1.H K 3.F F Y.T.N.N.A.m.3 3 D.R._.D.E._._._._.W.W.T.o.~ [ 6.H.s.r.5.H K 3.F Q Y.T.N.N.N.B.",
"D.D.R.R.R.R.W.E.R.E.T.i.] [ [ ' } G ' ' ! ! B h @.Z.D.m.j.j.j.4 5 D.D.D.R.R.E.E.W.E.E.E.y.W [ [ ` 3.G ~ ' ! ` S d @.Z.S.m.m.m.h.",
"D.D.D.D.R.E.F.].oX^.I.S.0.F x j n q q p a g q F p.M.B.i.h.-.&.4 5 Z.D.A._.D.D.^.].oX/.F.F.w.F x j n q w p g g q F B.M.B.h.=.-.&.",
"S.M.S.D.D.S.V.I.I.C.C.~.[.J.6.9.o.a 0 0 > > a *.i.p.j.*.$.$.#.4 5 V.M.D.D.D.S.S.C.I.n.C.~.[.J.9.+.{ a < e ; > s *.j.j.j.$.$.$.#.",
"M.M.b.S.b.c.z.z.u.z.v.K.I.~.(.*XoXu.S a a I ..*.;.=.*...#.#. .3 5 n.M.l.b.k.c.z.z.z.z.v.I.I.U.[.*XoXa.S a a b ..=.=.=.*.$. .#.#.",
"S.M.k.%.0.q.q.a.q.u.a.a.v.C.K.U.H.w.! j g k v ) $.&.$. ...| | 3 3 M.M.k.0.0.q.q.a.u.q.a.x.v.J.P.U.v.w.! j g k v ) $.$.#.....| | ",
"S.l.%.{ } 3.+.9.6.9.w.w.a.J.).L.e.2.:.B r a < : v  .| ^ ^ ^ ^ 3 3 S.l.%.} +.+.6.} 3.9.q.q.a.J.U.U.e.4.:.M r a 0 ; P ..) ^ ^ / ^ ",
"b.0.O.[ [ [ } { 3.0.9.K } x.P.e.:.:.Z m 8 0 % $ < T T T T Y U 3 9 b.0.@.[ [ [ ' } 9.9.9.` ' G.G.e.,.:.Z i q w % $ < R T T Y Y Y ",
"k.y.] G G ` [ { } 9.3.` ' s.P.G.>.:.V 8 7 a 0 $ % L Y P P L U 2 3 b.*.] G G ] [ { } 9.3.` ' G.L.g.5.J V r 7 p 0 $ % L Y U P Y P ",
"k.y.] F S ` { [ { } 3.` ~ r.H.&Xg.>.C i r a ; - l P L L L L U 2 5 k.0.] F S ] [ } { } } ` ~ r.P.&Xg.>.A m r a ; : z P P L L L P ",
"p.y.W F S ! [ [ } } } { ` 1.7.g.7.>.:.C i y 6 > z P L L l L L 4 5 c.y.E S x ] [ [ { } } ` ~ ' e.g.7.>.A C i r e > z L L z l L L ",
"i.i.$.W n ( ` ] { } { { ` ! 1.8.7.<.:.Z N f 7 w k z z z l l z 3 9 j.j.%._ F E ! ` { } { { { K 5.8.7.<.J D N t 7 e k z z l l l z ",
"y.y.y.y.%.` E G ` ` ` ( ` ` ` 1.2.2.:.A Z N r 7 q a k k l l z # O h.=.=.=.%.( E G ` { ( ` ( ` [ 1.2.2.:.J Z N r q q p l l l l z ",
"=.=.=.=.0.%.` ( ( ( ` ` ` ` } 3.' ~ ' H B M f d r w w s l l l !.B.=.=.=.=.=.$.{ ( ( ( ! ` ` ` [ } ' ~ ~ H N M t t r p p 0 k k L ",
",Xy o X $ o o o o o o o o o o X o o o o o   o o o o o o . u ,X<X<X1Xy X X X o   o     X X   . . o X . o     X o o     . . . 1 >X"
};
