/* XPM */
static char *_99d0f2fda62415cb8fd0d0391e061f22hCq2hzztHfSITHK[] = {
/* columns rows colors chars-per-pixel */
"64 64 8 1 ",
"  c None",
". c black",
"X c #323C39",
"o c #666324",
"O c #555555",
"+ c #696A6A",
"@ c #9D9719",
"# c #AEA943",
/* pixels */
"                                                                ",
"................................................................",
".o#@@@@@o@@@####@o#@@@oo##@@o@@@o@@@#@@oo@@@o#@@@o@@o@o@oo@@@@o.",
" .o#@@@@@o@@@@o@@@o@@@@@@@o@@@@@@@@@o@@@@@@@@#@o@@@@@o@@oo@@@o. ",
" .o#@@@@@o@@@@o@@@o@@@@@@@o@@@@@@@@@o@@@@@@@@#@o@@@@@o@@oo@@@o. ",
"  .o#@@@@@o@@@@o@@@o@@@@@@@@####o@@@@#o@@@@@o#@@@@o@@@@o###@o.  ",
"   ..........................................................   ",
"   ..........................................................   ",
"                .XX.                        .XX.                ",
"                .XX.                        .XX.                ",
"              ........                    ........              ",
"              ........                    ........              ",
"             . .XXXX. ..                 . .XXXX. .             ",
"            .  .XXXX.   .              ..  .XXXX.  .            ",
"           .   .XXXX.    .            .    .XXXX.   .           ",
"           .   .XXXX.    .            .    .XXXX.   .           ",
"        ................................................        ",
"        .o@@@@@o@@@o@@oo@@@o@@@o@@@o@@@oo@@@@o@@@@@@oo@.        ",
"        .o@@@@@o@@@o@@oo@@@o@@@o@@@o@@@oo@@@@o@@@@@@oo@.        ",
"        .#o@@oo@o@@@@@@@@o@@@@o@@@@@o@@@@o@@@@@@o@@o@#@.        ",
"        .#o@o@@@@o@@o@@@o@@@@@@@o@@o@@@@@@@o@@@@#o@@@#o.        ",
"        ........o@@o........................o@@@........        ",
"        ........o@@o........................o@@@........        ",
"        +O     .#@@@........................@@@@.      O        ",
"        O+     .#oo@........................@o@@.     OO        ",
"        OO     .@@@@........................@@@o.     O+        ",
"        OO     .@@@@........................@@@o.     O+        ",
"         O     .@@@o........................o@o#.     O         ",
"        +O     .#@o@........................@o@@.     O+        ",
"        +O     .#@o@........................@o@@.     O+        ",
"        O+     .#@#@........................@@@o.     +O        ",
"        +O     .o@#@........................@@o@.      O        ",
"         O     .@o@@........................@o#@.     +O        ",
"         O     .@o@@........................@o#@.     +O        ",
"        O      .@@@@........................@@@@.     O+        ",
"        OO     .@oo@........................o@o@.     OO        ",
"        +O     .o@@o........................#@@o.      O        ",
"        +O     .o@@o........................#@@o.      O        ",
"        OO     .@@@@........................#@@#.     +O        ",
"        O      .@o@@........................@@o@.     O+        ",
"        O      .@o@@........................@@o@.     O+        ",
"         O     .o@@@........................@o@@.     OO        ",
"        OO     .o@@@........................o@@@.      O        ",
"        O+     .@@@@........................@#@@.     +O        ",
"        O+     .@@@@........................@#@@.     +O        ",
"        +O     .@o@o........................@@@o.     O+        ",
"        OO     .o@oo........................o@@#.     OO        ",
"        O      .@@@@........................@@@@.      O        ",
"        O      .@@@@........................@@@@.      O        ",
"               .@o@@........................o@@o.               ",
"               .o@@@........................@@@#.               ",
"               .o@@@........................@@@#.               ",
"               .@@@@........................@o@@.               ",
"               .o@o@........................@@o@.               ",
"               .@@@o........................@@#@.               ",
"               .@@@o........................@@#@.               ",
"               .o@@#........................o@@o.               ",
"               .@o@@........................@@@#.               ",
"               .o#@#........................@@o@.               ",
"               .o#@#........................@@o@.               ",
"             ...@@@@........................o@@@...             ",
"             .##o@@oo@....................@#@o@@o@.             ",
"             .##o@@oo@....................@#@o@@o@.             ",
"             ......................................             "
};
