/* XPM */
static char *_f93444268f84740ef2e28e9c826a527AbwNlHLNR6JM5lu1[] = {
/* columns rows colors chars-per-pixel */
"64 64 8 1 ",
"  c None",
". c black",
"X c #61A4D4",
"o c #5FCDE4",
"O c #8D8F95",
"+ c #ACAEB3",
"@ c #CBDBFC",
"# c white",
/* pixels */
"                                                                ",
"                                                                ",
"                                                                ",
"                                                                ",
"                                                                ",
"                                                                ",
"                                                                ",
"                                                                ",
"                                                                ",
"                             ......                             ",
"                           ..oooooo..                           ",
"                          .oooXXXXooo.                          ",
"                          ...oooooo...                          ",
"                          .OO......##.                          ",
"                          .O@@@@@@@@#.                          ",
"                          .O@@@@@@@@#.                          ",
"                           .O@@@@@@@#.                          ",
"                           .O@@@@@@#.                           ",
"                           .O@@@@@@#.                           ",
"                           .O@@@@@@#.                           ",
"                           .O@@@@@@#.                           ",
"                           .O@@@@@@#.                           ",
"                           .O@@@@@@#.                           ",
"                          .O@@@@@@@@#.                          ",
"                          .O@@@@@@@@#.                          ",
"                          .O@@@@@@@@#.                          ",
"                         .O@@@@@@@@@@#.                         ",
"                        .O@@@@@@@@@@@##.                        ",
"                        .O@@@@@@@@@@@@#.                        ",
"                       ..@@@@@@@@@@@@@#..                       ",
"                     ...O@@@@@@@@@@@@@@#...                     ",
"                    ..O@@@@@@@@@@@@@@@@@##..                    ",
"                   ..O@@@@@@@..@@@@@@@@@@##..                   ",
"                   .O@@@@@@@@..@@@@@@@@@@@##.                   ",
"                  .O@@@@@@@@@..@@@@@@@@@@@@@#.                  ",
"                  .@@@@@.................@@@#.                  ",
"                 .O@@@@@.................@@@@#.                 ",
"                 .O@@@@@@@@@@..@@@@@@@@..@@@@#.                 ",
"                 .@@@@@@@@@@@..@@@@@@@@..@@@@#.                 ",
"                .O@@@@@@@@@@@..@@@@@@@@..@@@@@#.                ",
"                .O@@@@@@@@@@@..@@@@@@@@..@@@@@#.                ",
"                .O@@@@@@@@@@...@@@@@@@@..@@@@@#.                ",
"                .O@@@@@@@@@@..@@@@@@@@@..@@@@@#.                ",
"                .O@@@@@@@@@@..@@@@@@@@@..@@@@@#.                ",
"                .O@@@@@@@@@@..@@@@@@@@@..@@@@@#.                ",
"                .O@@@@@@@@@...@@@@@@@@@..@@@@@+.                ",
"                 .@@@@@@@@@..@@@@@@@@@...@@@@O.                 ",
"                 .O@@@@@@@..@@@@@@@@@...@@@@@O.                 ",
"                 .O@@@@@@@..@@@@@@@@...@@@@@@O.                 ",
"                  .@@@@@@..@@@@@@@@...@@@@@@@.                  ",
"                  .O@@@@...@@@@@@....@@@@@@@O.                  ",
"                   .O@@...@@@@@@@...@@@@@@@O.                   ",
"                    .O@@@@@@@@@@@@@@@@@@@@O.                    ",
"                     .OO@@@@@@@@@@@@@@@@+O.                     ",
"                      ..OO@@@@@@@@@@@@@O..                      ",
"                        ..OOOOOOOOOOOO..                        ",
"                          ..OOOOOOOO..                          ",
"                            ........                            ",
"                                                                ",
"                                                                ",
"                                                                ",
"                                                                ",
"                                                                ",
"                                                                "
};
