/* XPM */
static char *_ce560bc327c4662ca38e8667f0202edOKWeb2SBIaJBAcjr[] = {
/* columns rows colors chars-per-pixel */
"64 64 185 2 ",
"   c #070D01",
".  c #090E02",
"X  c #071202",
"o  c #091301",
"O  c #0B1B02",
"+  c #111705",
"@  c #101805",
"#  c #16160C",
"$  c #1B1B16",
"%  c #1E1419",
"&  c #1F1E19",
"*  c #23161A",
"=  c #0D2303",
"-  c #0E2E05",
";  c #132603",
":  c #142904",
">  c #182907",
",  c #192409",
"<  c #142909",
"1  c #163304",
"2  c #183605",
"3  c #173A04",
"4  c #193B04",
"5  c #1D330B",
"6  c #1F3C08",
"7  c #222616",
"8  c #242618",
"9  c #28261C",
"0  c #292A1B",
"q  c #273417",
"w  c #283617",
"e  c #273118",
"r  c #2C331D",
"t  c #2D3C1C",
"y  c #31371E",
"u  c #2B1E24",
"i  c #2E1D2A",
"p  c #331E2D",
"a  c #351E32",
"s  c #3A1F36",
"d  c #3B1F39",
"f  c #2D2227",
"g  c #2E2129",
"h  c #302527",
"j  c #322D25",
"k  c #32232C",
"l  c #352D2B",
"z  c #3B2D2E",
"x  c #2E3121",
"c  c #323224",
"v  c #35312A",
"b  c #3A322C",
"n  c #373D2D",
"m  c #362132",
"M  c #3B2234",
"N  c #3C2C32",
"B  c #3C2239",
"V  c #3F3434",
"C  c #3B3B30",
"Z  c #4E2925",
"A  c #4F2D29",
"S  c #512A27",
"D  c #532D2B",
"F  c #582F2E",
"G  c #4F302C",
"H  c #53302E",
"J  c #59302F",
"K  c #402434",
"L  c #422934",
"P  c #44263D",
"I  c #432B3B",
"U  c #453135",
"Y  c #423F35",
"T  c #4A333A",
"R  c #553232",
"E  c #5B3334",
"W  c #57373A",
"Q  c #5B363A",
"!  c #513B3D",
"~  c #5C393C",
"^  c #613536",
"/  c #643837",
"(  c #62363B",
")  c #65393D",
"_  c #683B3E",
"`  c #164005",
"'  c #1C4305",
"]  c #1C4A06",
"[  c #1C5107",
"{  c #165D0B",
"}  c #214D06",
"|  c #224509",
" . c #225407",
".. c #18670C",
"X. c #257417",
"o. c #2B4E22",
"O. c #3F5735",
"+. c #44433B",
"@. c #452343",
"#. c #4A2447",
"$. c #4F2847",
"%. c #4D2748",
"&. c #4F2849",
"*. c #542C46",
"=. c #582F45",
"-. c #532C4A",
";. c #582E48",
":. c #533543",
">. c #5E3543",
",. c #593046",
"<. c #5B3045",
"1. c #5D3246",
"2. c #5D3345",
"3. c #5E3544",
"4. c #5E3546",
"5. c #5C3345",
"6. c #5E3A42",
"7. c #563149",
"8. c #5C3348",
"9. c #5A314C",
"0. c #5E354F",
"q. c #5C3449",
"w. c #5E384A",
"e. c #623643",
"r. c #613541",
"t. c #603444",
"y. c #633645",
"u. c #613644",
"i. c #663940",
"p. c #673A40",
"a. c #653943",
"s. c #673943",
"d. c #643A42",
"f. c #673A42",
"g. c #653A44",
"h. c #653A46",
"j. c #673C46",
"k. c #653B43",
"l. c #683A41",
"z. c #693B43",
"x. c #6A3B42",
"c. c #6A3C41",
"v. c #693D43",
"b. c #6B3D42",
"n. c #6B3C43",
"m. c #683D41",
"M. c #6C3D43",
"N. c #6C3E43",
"B. c #693D44",
"V. c #693D47",
"C. c #6D3E44",
"Z. c #6E3E44",
"A. c #6B3E43",
"S. c #61374A",
"D. c #61364A",
"F. c #663C4B",
"G. c #653B4B",
"H. c #6A3E48",
"J. c #6A3F4E",
"K. c #6A3E4A",
"L. c #613751",
"P. c #643C52",
"I. c #664045",
"U. c #6D4043",
"Y. c #67434B",
"T. c #6C424F",
"R. c #6D444C",
"E. c #704244",
"W. c #70464F",
"Q. c #6D4550",
"!. c #6F4954",
"~. c #704752",
"^. c #714A56",
"/. c #734D5A",
"(. c #1F8E11",
"). c #239611",
"_. c #249513",
"`. c #249A12",
"'. c #279F14",
"]. c #239C12",
"[. c #24A013",
"{. c #29A317",
"}. c #26AF15",
"|. c #29AA17",
" X c #2EA319",
/* pixels */
"`.[ ] ' } ' ' 1 > > ' ' ' 1 ' ' > ] ' ' ' ] ' ' } | | | | 5  XX. X'.4 ' } > 1 ' } } > ' ' 1 |  .: ' | ' ' ' ] ' ' ' ' ] ' ' ] ).",
"] 4 ' ' 4 ' ' 4 4 ' ' ' ' ' : ' ' 6 ' ' 4 ' ' ' 6 y b U U K U Y V t > 6 6 : 4 : : : ' 4 4 ' > 4 ] : ' ' ' ' ' ' ' ' 4 ' ' ' 3 3 ",
"3 3 2 : 3 4 2 ; 4 4 4 4 3 ; ' ; 4 4 4 4 4 3 4 4 r -.7.,.=.=.=.=.*.$.y 4 > : : 4 3 : 4 4 4 3 : 4 ' 4 4 4 4 4 ; 4 4 4 4 ' 4 3 1 ; ",
"3 2 : ' : 3 ; ; : 3 4 4 4 : ' : 4 ; ; ; 3 : 4 6 z ;.<.u.( =.Q =.=.=.*.K c 4 4 4 : ' > 3 4 : ; 4 4 4 4 4 4 4 ; ; 4 4 4 4 4 3 1 - ",
"3 2 : | ; ; | ; | : 3 4 ; 4 4 ; : 4 4 ' ; ; ' 0 $.,.u.h.( ( ( ( t.>.=.=.*.L r 6 > | ; 3 ; } : 4 4 4 4 4 4 4 ; ' : 4 4 4 3 ; 1 : ",
"2 ; 4 ' ; 3 4 ; 4 ' : 3 : 4 4 : 2 : ; ; 2 ; y %.*.4.a.a._ ( ( ( _ s.s.t.=.*.*.r 4 4 ; ; 3 ' : 4 4 4 4 4 4 ' ; 4 ' : 4 4 4 : ; ; ",
"2 ; 3 ; 4 4 : 4 : 3 | : 4 4 ; 4 ; 4 4 4 4 4 L -.q.u.m._ ( ^ J ^ ( x.x.s.e.3.,.$.y ; ; 4 4 : 4 4 4 4 ; 3 4 4 4 ; ; ' ; 4 2 ; 2 O ",
"; 1 3 : 3 : 4 4 4 4 4 4 4 4 4 4 ; : 4 4 4 4 T -.S.j.m.x.^ ^ F ^ _ n.x.x.x.u.~ ,.*.9 4 4 4 4 4 4 4 ` ; ; 4 4 4 4 : | ; 3 ; ; ; : ",
"4 : 4 4 : 4 4 4 4 4 4 4 4 4 4 4 : | ; 3 4 ; :.;.G.B.B._ ^ E F J _ n.N.n.B.m.h.e.*.%.q 4 4 4 4 4 4 4 ; ' : 3 3 ; 4 ' ; ; 4 4 2 @ ",
"4 3 4 4 4 4 4 4 4 4 4 4 ' 4 4 4 ; 4 ' ; 4 7 ! L.P.B.B._ ^ J D F ) n.Z.Z.M.M.m.h.4.*.v 4 4 4 : 4 4 4 ; ; 2 : 4 : 4 4 ; 4 ; ; ; : ",
"3 3 4 4 4 4 4 4 : 3 4 4 4 4 4 : 4 ; 3 : 7 #.S.L.J.Z.x.s.E F D F ) n.N.Z.Z.M.M.B.h.*.N 4 3 ; ' : 4 4 4 ; 4 | : 3 3 : : ; 4 4 1 : ",
"3 3 4 ' 4 4 4 4 ; ; 4 4 4 4 : ' : 4 3 : v #.L.P.~.H.s.s.^ F S F ) n.N.Z.Z.M.E.U.B.,.&.r 3 ; } : 4 : | : 4 3 4 4 4 4 3 3 4 3 1 ; ",
"3 4 2 : ; : 4 4 ; | : 3 4 4 : ] ; 4 4 4 l #.P.P.~.V.B.s.E E S F ) n.N.Z.Z.N.H.M.m.4.*.z 3 4 4 ; : 4 ' : 4 4 4 4 3 4 4 4 4 3 2 ; ",
"3 2 : 2 4 4 ; ; ; 4 4 ; 4 : 3 ' ; 4 4 4 h #.P.P.~.B.x.s.E E S F ) n.N.Z.Z.N.M.M.m.u.*.*.0 3 ; ; 4 4 : 3 4 4 ' 4 : 3 ' 4 4 : 1 : ",
"2 4 4 ; ; ; 4 4 4 : 4 | ; ; 4 ; ' : 2 ; l #.P.P.T.I.m.a.E F S D ) Z.Z.Z.N.M.U.U.m.j.4.*.%.q : 4 4 ; 3 4 4 4 3 ; ' : 4 4 4 ; 1 ; ",
"3 2 4 4 4 4 : ; : 3 : 4 ; 2 4 ; ' ; ; ; k #.P.T.R.j.j.( E F S D ( _ Z.Z.M.M.M.U.N.B.u.<.$.j 4 4 4 ; ' : 4 4 4 ; } : 4 : ' : 1 ; ",
"2 4 4 3 4 4 4 4 4 4 ; ; 3 4 : 3 4 : 4 ; b #.P.P.R.I.~ 6.Q R Z D _ M.M.E.M.B.B.U.U.m.B.u.-.N 4 4 ; ; 3 ' : 2 3 4 6 ; : 3 ' : 1 : ",
"3 2 3 ; 4 4 4 4 3 3 ; ' : 4 ; 3 ; 4 3 ; l #.J.P.Q.k.~ ) Q R Z D ( M.M.M.U.U.U.m.U.U.B.B.*.P 4 4 ; | : 4 ' : ; 4 ; ; 3 4 : 2 1 ; ",
"4 ; O ; O ; : ; = O O = : @ ; ; @ ; O ; p #.P.P.!.6.( ~ Q H Z S ) _ M.U.M.U.N.U.m.U.U.U.*.@.; O : : : : ; O : : O ; : ; ; ; ; 1 ",
"].-   X . X o X     X   o o . X X . X o p #.P.P.R.I.~ ~ E H Z D ) N.M.U.M.M.N.N.m.N.U.U.*.#.X   X . X X   o X o X o o o X X - ).",
"}...X O O X O X = X O O O X O O O O O O i #.P.P.Q.6.~ ~ Q H Z D ) _ Z.Z.M.M.B.m.m.U.U.U.,.#.p k k p g a k p g g g g i g f $ ..}.",
"}...O X O X X O O X O O O O O O O O O O g #.P.P.!.6.! W R R Z D / Z.n.Z.M.M.m.m.m.U.U.E.w.-.-.-.-.;.;.-.-.-.-.-.-.$.$.$.$.$.V O.",
"[.[ ' : ]  .: ] < ] ] ] ] 3 O O O O 4 ] v #.P.P.!.G.~ ~ R H A D ) _ _ Z.N.m.m.I.U.U.U.I.4.5.5.<.,.q.q.5.q.q.q.4.,.5.,.4.8.7.;.-.",
"[ 4 ' ' ' w v z m N z v w 3 1 O X - 4 ' l @.P.P.^.Q.6.~ R H G D ^ _ N._ m.j.U.I.I.~ 6.6.6.~ 6.6.u.m.j.j.G.j.j.h.a.h.h.h.h.K.S.0.",
"3 e l N N $.*.*.*.*.*.$.*.P P k a f q 4 l #.P.P././.Y.6.R R A G ^ ) m.m.B.B.Y.k.~ W W ~ ~ ~ ~ u.a._ s.s.s.s.s._ _ a.N.N.N.Z.J.J.",
"l $.$.*.*.5.4.u.u.u.u.4.<.=.*.*.%.%.%.N k #.P.P././.!.Y.~ R R A E ) m.U.U.Y.~ W R Q ~ Q Q ~ ( ~ Q ( ( ^ ^ ( ( / ) ) _ _ n.Z.Z.Z.",
",.,.4.u._ U.b.E.U.N.B.M.B.h.h.u.4.5.,.*.*.$.P.P././././.U.~ G G E _ m.j.I.~ Q H H H R J R R R R E F J E F E J ^ ^ ^ / / _ _ Z.Z.",
">.u.k.m._ U.U.b.U.U.U.U.U.B.B.B.m.u.u.3.<.=.F.G./.!././.W.+.W ~ ~ I.I.~ W R H H H D D S S D D D D F F D D D F D J J / ) ) _ n.Z.",
"m.m.N.U.b.b.E.b.b.b.N.N.Z.N.Z.H.U.j.B.B.B.h.B.B.Y.R.~.^.^.Y.W I.I.6.~ R G G G G S S S S Z Z Z Z Z S S S S D D F F ^ ) _ _ _ _ Z.",
"m.m.U.U.b.b.E._ b.U.Z.Z.Z.N.M.M.M.U.U.B.N.n.N.N.U.Y.Y.R.Q.T.I.) I.~ R H H H H H F ^ E E J ^ J ^ E E E E ^ ^ ^ ^ / ) _ _ _ _ n._ ",
"m.M.M.M.E.E.Z._ b.E.Z.Z.N.M.Z.Z.M.M.U.N.N.n.N._ m.m.m.m.B.U.k.Q R R E R E E ~ ) _ _ _ _ _ _ N._ _ n.n._ n._ Z._ n._ _ _ n._ _ Z.",
"x.m.M.M.U._ N.N.E._ Z.N.Z.M.M.M.U.M.M.N.N.n.n.n.x._ _ ( ( ~ ~ W W ~ Q ~ / ) _ ) _ Z.E.Z._ E.N.N.N.Z.n.Z._ Z.Z.Z.Z.Z.n.Z.Z.Z.Z._ ",
"_ Z.Z.M.M.Z.Z._ Z._ _ Z._ N.N.x.Z._ _ E._ N.N._ _ _ / +.E W R W Q E W ~ m.E._ _ N._ N.n.Z.N.M.H.Z.M.U.Z.N.Z.Z.Z.Z.N.U._ E.E._ n.",
"_ x._ _ _ _ _ _ _ _ _ ) ) ) ) _ ) ) ) / _ ) ) Q / J J R R H Q W ~ ~ R ~ +._ N._ _ N.N.N.N.N.U.M.M.Z.H.Z.E.E.E._ Z._ U.E._ _ _ s.",
"x._ _ _ _ / ^ E F F D F D D S S S D S S S S D D D H G H R E ~ I./ / R R W ) N.N._ N.m.U.N.N.N.M.Z.H.Z.Z.b.b.b.b.b.U.U._ m.a.e.5.",
"_ Z.M._ / ( ^ J F D D S S S S Z S S Z Z S S A A D H H W E 6.k.j./ ~ ~ R R Q m.m.m.m._ U.N.N.m.M.U.M.M.M.E.b.E.b.E.U._ U.U._ 3.*.",
"Z._ _ _ ) / ^ J J F J J J J J E J H R H D H H D H R ~ +.m.I.m.m.( / Q R H R ~ I.I./ _ m.U.B.M.U.M.U.B.U.E.U.U.E.E.U.U.U._ u.5.*.",
"Z.Z.Z._ _ ) / ^ ^ ^ ^ E E E E E E E Q E Q Q Q R G ~ M.E.I.m.m.k.m._ ^ H G R W I.U.6._ m.m.B.U.m.B.U.U.M.Z.Z.E.E.E.U.U.U.u.4.*.j ",
"Z.Z.Z.Z.n.s._ _ s.s._ ) m.a.u.) ) / ~ ~ W W W W k.Y.W.E.m.m._ m.m._ / Q G H R ~ I.U.m.U.U.m.U.U.U.B.U.U.E.U.E.E.U.U.B.u.<.*.j : ",
"L.F.K.Z.B.B.x.n.n.x.x.x.B.m.I.k.6.u.~ ~ ~ ~ W 6.Y.T.U.U._ _ m._ _ m./ E G H H Q k.I.U.U.U.U.U.U.U.U.U.U.M.U.H.B.j.m.u.,.*.v 2 : ",
"9.9.q.u.u.h.j.j.S.G.B.K.G.B.j.j.k.6.6.6.w.:.q.Y.E.R.U.m._ / _ N.m.x._ ^ D A H R ~ I.U.R.U.U.U.U.B.M.B.j.G.u.u.5.5.,.*.%.8 ; O 1 ",
"! -.-.;.7.,.q.q.G.G.J.F.F.J.J.P.G.Y.w.0.q.7.-.w.U.U._ _ _ U.m.m.m.N.n.( D Z H R W ~ m.j.j.u.S.u.D.t.7.;.*.-.&.$.%.s i $     O _.",
"|.o.i m B %.&.&.-.-.-.;.-.9.-.-.-.-.&.&.&.$.#.4.E.U.U.m._ _ U.N.Z.Z.N.) D Z H R ~ W :.7.#.#.#.#.#.#.#.B m k i u $ X O O O O { }.",
"}...X O O & g k a m d B B B B B B m m k f i #.4.U.U.N.m._ m.U.m._ Z._ ) S Z R E ~ ~ 5.7.B s s m p f $ O O X X O o O O O O O { }.",
"[.[ : ; 4 ` ' 4 : ] : 4 ' 4 4 : < 4 ' > 4 k #.4.E.U.U.m.U.M.K.U.Z._ _ _ D S E Q ~ >.5.7.I ` ' : : ; ] : ' : ` ' ; ' ` ' ` ` [ ].",
"] ' : | < ' ' : ' : : : : ' 4 : ' ; ' 4 ` k #.4.U.U.U.m.m.B.U.M.Z.Z._ ) S Z H Q ~ ~ 6.7.I ' ' 4 4 : ] : : | : ' ' 4 ' ' ' 4 3 ` ",
"4 3 : 3 ' : 3 ; ; ' ; 3 ; ; ; ; 4 ] : 2 ; l #.4.U.U.U.U.U.B.H.M.Z.N._ ) S Z J E ~ ~ 6.q.I ; 4 4 ; 4 4 : 4 4 ; : 3 3 4 4 ; 4 1 : ",
"3 3 2 : 3 ' ; 3 : ' ; ; ' ; ' 4 : 3 ' : ; k #.u.U.U.U.m.U.U.U.M.Z.Z.N.) S S J E ~ u.4.q.I ] : 4 ; 4 ; 4 3 : ; ' : 3 4 4 ; 3 1 ; ",
"3 3 3 ; : 2 3 ; 4 4 ; 4 4 : : : 4 : 3 : 4 h #.<.E.U.U.N.N.U.M.U.n.Z.Z.) S Z E E ~ k.u.q.$.w ' : : ' : 2 : 4 : | ; 3 ; | : 4 1 : ",
"1 3 3 : ' : 3 : 4 : ; 4 : 4 4 2 : 4 : 2 4 k #.t.Z.E.U.m.U.M.M.M.Z.Z.n.( S S F E a.m.k.q.%.h 4 ' ; 4 ' : 4 4 4 4 ; ; 3 | ; 3 1 : ",
"2 4 4 ; 3 | : 4 4 : ; ; 4 4 4 4 : | ; 2 : h #.t.U.U.U.N.N.U.Z.N.n.Z.x._ D S F ^ m.j.j.q.-.v ; 3 4 : 4 ' ; ; 3 : : 4 4 : 4 4 1 ; ",
"3 2 4 4 : 4 6 : 4 4 ; ' : 4 2 : 3 ' ; ; 4 w #.=.K.M.U.U.N.Z.N.Z.n.Z.x.s.D S F ^ a.m.G.q.$.l : 4 4 4 4 4 ; 3 4 : 4 4 4 4 4 4 1 ; ",
"3 2 4 4 4 4 4 4 : 4 : 2 | : 4 : 4 4 ; 3 ; ; k =.D.B.U.U.U.E.N.Z.Z.x.N._ D D F ^ _ j.G.D.&.k 4 4 4 4 4 4 4 4 4 4 ' 4 4 4 4 4 1 ; ",
"2 ; 4 4 ' 4 4 ; 6 ; 4 : 4 4 : 2 4 : ; ; 4 4 x *.4.h.M.U.E.M.N.Z.Z.Z.n.) F D F ^ a.B.G.q.&.k : 3 4 4 ' 4 3 : 4 4 4 4 ; 4 ' 4 1 ; ",
"2 ; ; 3 4 4 3 : | : 4 ; ; ; 4 4 4 4 4 4 4 4 4 z ;.u.B.U.U.U.N.Z.Z.Z.n.) F D F ^ _ B.B.q.%.l ; : 4 4 4 4 : ' : 4 3 : ; 4 4 4 1 : ",
"2 ; 4 : 4 4 : 3 4 : ; 3 4 | : 4 4 6 ; 4 4 ; 3 y $.,.j.U.U.U.U.N.n.Z.n._ F D E ^ _ B.h.q.-.j ; 6 : 4 4 4 : ' : 3 : ' ; 4 4 4 1 - ",
"3 ; 4 ' ; 4 : 3 3 ; 2 : ; ; 4 4 3 : ; 4 4 ; ; 4 N *.h.m.E.b._ N.N._ N._ E F F / _ m.h.8.&.h : 4 ' ; 2 ; 4 4 ; ; 3 ' ; 4 4 4 ; ; ",
"3 3 : 4 | : 3 ' ; ; ; 4 4 ; 4 4 : | ; 3 4 ; ' ; x $.4.a.U.m.b.m.n.Z.m._ ^ E ^ ) _ a.h.7.&.j 4 : 4 | ; ; 4 : ; 4 : 4 4 4 4 : : @ ",
"; 2 4 4 3 3 4 4 4 4 4 ; 4 : 2 : 4 ' : 3 4 : 4 | ; c *.3.m.u.x.x.n.n.x.x.( ) ^ ) x.x.y.*.%.7 : 3 4 ; : 4 4 : 4 ; ' : 4 4 3 ; 1 1 ",
"4 ; 4 4 4 4 4 4 3 : 4 ; ' | ; 4 ; ; 4 4 4 4 ; ; 6 > b *.,.6.e.( s.s.s.( ( ( ( _ x.h.u.;.N 4 3 4 4 ; 6 : 4 4 4 ; ] : 4 : | ; ; ; ",
"3 4 : 4 2 3 3 4 3 ; : 2 4 4 4 : ' ; : 3 4 4 3 > ' : 6 b *.*.=.=.1.1.t.r.( ( ( s.s.y.;.*.v 4 4 4 4 : 4 ' : 3 3 4 4 ; : 4 ' : 1 O ",
"4 3 4 4 ; ; : 3 4 ; ' ; 4 4 3 : | ; ' : 4 4 ; 2 ' : > 4 y b *.*.*.=.=.<.=.<.<.t.D.;.;.%.w : 4 3 4 4 : 4 ' : : 4 ; ; 4 4 : 2 1 : ",
"4 ; ; + @ ; ; o o + ; ; O @ o ; ; o = ; @ ; + , , + ; o @ + 0 n U L L T $.=.=.=.=.*.k 7 ; o o ; = ; ; ; = O ; ; O ; ; = = ; O ; ",
").= . .       . X X   X X     .         .   . # # . . X . = `.|.|.)., * p p s K K u + .           .                   .   X O (."
};
