/* XPM */
static char *_8822e2b609147d1d372e2f754c179daDjtbTdjZAvTP2Lgt[] = {
/* columns rows colors chars-per-pixel */
"64 64 220 2 ",
"   c None",
".  c #17140E",
"X  c #1A1611",
"o  c #1D1915",
"O  c #231B15",
"+  c #221D18",
"@  c #2E231C",
"#  c #2E2B26",
"$  c #392F29",
"%  c #5D3B2C",
"&  c #5B3428",
"*  c #4F3833",
"=  c #533B33",
"-  c #5E3F3F",
";  c #44362D",
":  c #693832",
">  c #5B433C",
",  c #6A473A",
"<  c #724B3E",
"1  c #70593A",
"2  c #79643D",
"3  c #4F3F4C",
"4  c #543A49",
"5  c #5B3A4B",
"6  c #543747",
"7  c #76394A",
"8  c #6B3C4F",
"9  c #46454C",
"0  c #5C4941",
"q  c #5B4151",
"w  c #53504B",
"e  c #6B4D44",
"r  c #654B47",
"t  c #774C46",
"y  c #6C5249",
"u  c #77554B",
"i  c #78554B",
"p  c #774852",
"a  c #6E5B58",
"s  c #7D5354",
"d  c #785B56",
"f  c #6C4150",
"g  c #7B6156",
"h  c #78615F",
"j  c #797470",
"k  c #B23F39",
"l  c #B72B38",
"z  c #C3373E",
"x  c #BB443C",
"c  c #C4563C",
"v  c #8A374B",
"b  c #8C3C52",
"n  c #973B53",
"m  c #9A394E",
"M  c #BC3646",
"N  c #AC3954",
"B  c #B23951",
"V  c #A63347",
"C  c #C33744",
"Z  c #CA3E52",
"A  c #C83D54",
"S  c #D03F4E",
"D  c #81564C",
"F  c #814D52",
"G  c #804352",
"H  c #845E54",
"J  c #845B5A",
"K  c #8B5A5B",
"L  c #975C5B",
"P  c #9B4158",
"I  c #BD5244",
"U  c #A94258",
"Y  c #B54259",
"T  c #BF515A",
"R  c #B64946",
"E  c #926449",
"W  c #8B615B",
"Q  c #85665B",
"!  c #93635E",
"~  c #9A675F",
"^  c #917659",
"/  c #917653",
"(  c #BA6851",
")  c #AC7E54",
"_  c #B26F58",
"`  c #875D62",
"'  c #B45F65",
"]  c #8B6362",
"[  c #826D63",
"{  c #8A6D63",
"}  c #876462",
"|  c #946462",
" . c #936C65",
".. c #9B6B65",
"X. c #9C6D69",
"o. c #95696B",
"O. c #887469",
"+. c #92756A",
"@. c #94796E",
"#. c #9D726C",
"$. c #8C7975",
"%. c #937B71",
"&. c #997E73",
"*. c #997777",
"=. c #A36865",
"-. c #B76765",
";. c #A27165",
":. c #A3746B",
">. c #AB7A6D",
",. c #A87A66",
"<. c #BA7A68",
"1. c #AD7D73",
"2. c #A77975",
"3. c #B67C75",
"4. c #C74648",
"5. c #C95749",
"6. c #CD4354",
"7. c #CB445B",
"8. c #C84758",
"9. c #D1445D",
"0. c #C95253",
"q. c #CC5957",
"w. c #D15956",
"e. c #D0424E",
"r. c #C9664D",
"t. c #D56658",
"y. c #C57656",
"u. c #D67758",
"i. c #CC6955",
"p. c #D34861",
"a. c #C65B65",
"s. c #D55F63",
"d. c #C87363",
"f. c #D37864",
"g. c #CD6A69",
"h. c #E17E6D",
"j. c #9A8250",
"k. c #B8875D",
"l. c #A18F5E",
"z. c #9C8A67",
"x. c #9B8176",
"c. c #9D8579",
"v. c #9F887C",
"b. c #968177",
"n. c #8B837E",
"m. c #B68964",
"M. c #A7926A",
"N. c #B99B68",
"B. c #AE8274",
"V. c #A2867B",
"C. c #AE837C",
"Z. c #A28A7E",
"A. c #B38376",
"S. c #B4847A",
"D. c #BB8A7C",
"F. c #BBA063",
"G. c #C68B5B",
"H. c #D3845B",
"J. c #C5935A",
"K. c #D3965D",
"L. c #D2A25E",
"P. c #CCA85E",
"I. c #C78668",
"U. c #D98A66",
"Y. c #C59366",
"T. c #DB9969",
"R. c #C7987A",
"E. c #DF9871",
"W. c #C38476",
"Q. c #E28B71",
"!. c #E59C71",
"~. c #C8A66A",
"^. c #D8A86A",
"/. c #DAB365",
"(. c #DCB56C",
"). c #DBA774",
"_. c #DBB875",
"`. c #E1BA6C",
"'. c #E1A576",
"]. c #E3BC72",
"[. c #E4B679",
"{. c #E0AF6B",
"}. c #DFC27B",
"|. c #E4C37C",
" X c #E9C47A",
".X c #B67980",
"XX c #C97C81",
"oX c #9D8C87",
"OX c #94908B",
"+X c #A48D82",
"@X c #AB8A82",
"#X c #B58482",
"$X c #BD8C83",
"%X c #BC8D89",
"&X c #B88885",
"*X c #A69186",
"=X c #AA9287",
"-X c #A69389",
";X c #AB958B",
":X c #AE998E",
">X c #B5958B",
",X c #AF9991",
"<X c #B39C94",
"1X c #B79B94",
"2X c #BDA196",
"3X c #B6A199",
"4X c #BBA49B",
"5X c #BDA89E",
"6X c #BBA38B",
"7X c #BEAAA2",
"8X c #B9B2AD",
"9X c #C28E8B",
"0X c #C18C81",
"qX c #C29183",
"wX c #C79692",
"eX c #C0AA9F",
"rX c #C2ABA2",
"tX c #E9C681",
"yX c #EECA81",
"uX c #F1CD83",
/* pixels */
"                                                                                                                                ",
"                                                                                                                                ",
"                                                                                                                                ",
"                                                                                                                                ",
"                                                                                                                                ",
"                                                                                                                                ",
"                                                                                                                                ",
"                                                                                                                                ",
"                                                                                                                                ",
"                                                            w                                                                   ",
"                                                        o o X . + $                                                             ",
"                                                      # o X X X X X # OX                                                        ",
"                                                  8Xj + o o X X X X X $.                                                        ",
"                                                  8Xj o o o o X X X X OX                                                        ",
"                                                  $.d + o O + + o o @ u                                                         ",
"                                                  * J J = y J d d - t i                                                         ",
"                                                    - o. .1.S.S.B.! ! =                                                         ",
"                                                    @ e #.>XrX1XC.:.e @                                                         ",
"                                                    , H d.d.tX[.~.<.W ;                                                         ",
"                                                j.F.f.7.7.8.'.].].K.A V : % W                                                   ",
"                                        N.q.5.).tXtX).7.n b L N./ Y.n N B y.~.~.6X                                              ",
"                                      ~._.U.8.).tXtXtXa.b n F ^ ^ ^ F b m w.`.(.L.y.                                            ",
"                                    k.^.[.E.e.E.tXtX[.s.9.p.s.[.tXtXf.p.S 9.].`.`.r.~.                                          ",
"                                    H.U.T.!.S U.uXuX_.d 4 8 a.tX_.O.p 8 p Y ].`.`.r.T.Y.                                        ",
"                                  -.u.u.H.u.z u. XuX Xf.P 5 K tXz.9 K N 3 f [. X`.r.T.K.y.                                      ",
"                                1XT w.t.c c z t. XuXuXQ.N 6 F '.z.9 =.p.5 q {.`.P.r.r.u.i.                                      ",
"                                .XC e.e.z x z t. XuXuXQ.Y 4 p ).M.9 | p.q q ^.`.L.x w.w.R -.                                    ",
"                                #Xa.e.C l l c 4.]. X XQ.Y 5 b ).M.9 L p.5 3 T./.K.x C 6.7.' 8X                                  ",
"                                @X&X9X9X' ( 0.4.]. X XI.n 7 p Y.N.p p N 4 5 K./.J.R -.XX9X#X7X                                  ",
"                                .X&X9X9XS.) 5.z [.].[.^ 5 4 4 Q _.z.a 7 7 B K./.G.=.0XwX%X2.;X                                  ",
"                                2.#X%X&X1.) r.z {.|. XE.p.A p.E.tXeX'.s.6.Z H./.Y.! #XwX%X#X+X                                  ",
"                                #..X#X1.=.E y.C T. X X^.p.p.A Q. X X~.8.B V y.P.m.=X*.&X%X#X2.                                  ",
"                                X.3.3.2.D > H.k H._.F.m.N N V <.F.l.m.U v : _ P.B.    2.&XC.#.oX                                ",
"                              *...2.2.:.%   k.x y.(._.^.7.A A d._.P.^.0.M M J.k.;X    +.2.1.:.x.                                ",
"                              { L 2.:.L     / 5.5.^.(.(.8.6.A f.(.}.^.0.M M L.k.;X    +.X.2.X.]                                 ",
"                            *.K | L ~ H     2 y.x K.(.(.q.Z A t.(.(.^.0.C C L.m.-X    b.| X.! K                                 ",
"                            { | | L !       1 G.k T.(.`.d.6.A w.(.(.^.0.M M J.z.-X      W .. .| [                               ",
"                            J | X.X.F       , ;.-.I.R.R.W.d.<.3.R.R.R.W.<.3.,.~ c.      }  .X. .$.                              ",
"                            J o.X.]         ! ,.A.D.qXqX$XD.R.D.qXqXqX$XD.A.>.;. .      $.W o.] b.                              ",
"                            s | ] J         ;.>.B.A.D.D.D.D.D.D.D.$XW.D.A.A.>.;. .      h u J J $.                              ",
"                            J ` } &.        :.1.1.A.A.S.S.S.S.S.S.A.D.D.A.B.,.;. .      h s K o.-X                              ",
"                            ` s s $.      = X.>.1.1.3.1.>.B.A.B.1.B.B.>.B.>.,.;. .[     ` K | *.oX                              ",
"                            *.`           y ;X=X>X>X>X>X1XwX2X2XwXeX2XeX2X2X<X<X=X[     s F s ] j                               ",
"                            o.            =X3X3X4X7X7XrXrXrX7XrXrXrXeXeXeX5X3X<X-X[     d F F ` O.                              ",
"                                        r ,X7X3X7X4XrX7XrXeXeX5X5X5XeX5X5X2X4X3X;X[     p p s s                                 ",
"                                        g <X<X<X4X4X4X4X4X2X3X3X4X3X3X3X3X3X3X<X:X[     a y 0 0                                 ",
"                                        $.<X<X<X<X<X3X3X<X3X3X<X3X3X3X3X1X<X<X<X-XO.    a 0 = 0                                 ",
"                                        oX,X,X<X<X<X<X<X<X<X3X,X<X:X<X<X<X<X,X;X-XO.      =                                     ",
"                                        Z.:X;X;X,X;X,X,X,X,X:X:X,X,X:X:X:X:X;X;X-X%.                                            ",
"                                        +X;X-X-X;X;X-X,X:X-X:X;X,X,X,X:X:X:X;X;X*X%.                                            ",
"                                        +X=X=X+X=X-X-X-X-X*X-X-X:X:X:X;X;X;X-X*X+X[                                             ",
"                                        +X*X*X*X*X;X=X+X*Xv.Z.Z.*X*X=X=X-X*X*X+X+Xg                                             ",
"                                        Z.Z.=X*X+X-X*X*XZ.@.x.v.Z.*X*X*X*X+XZ.+XoXd                                             ",
"                                        Z.Z.*XZ.v.+X*X*XZ.b.[ b.Z.Z.Z.v.Z.*Xv.Z.v.d                                             ",
"                                        Z.Z.Z.*X+X+X+X+Xv.v.g y x.V.Z.Z.Z.V.V.@XV.g                                             ",
"                                        V.Z.v.*X+Xv.v.v.b.O.,   O.x.V.Z.V.V.Z.V.b.g                                             ",
"                                        x.Z.c.v.*XZ.x.x.@.+.    Q @.@.V.V.V.V.V.x.Q                                             ",
"                                        x.Z.c.c.Z.V.Z.V.&.x.    i @.b.@.x.c.V.x.x.Q                                             ",
"                                        @.v.x.x.c.v.V.V.c.Q     < @.x.x.x.x.x.@.&.d                                             ",
"                                        @.b.c.x.x.x.x.&.@.y       { x.x.x.x.x.@.u                                               ",
"                                        D @.&.V.x.c.x.x.{ %       , +.x.V.x.@.i %                                               ",
"                                          , +.V.c.x.&.@.,           , Q ^  .H <                                                 ",
"                                            & H &.&. .u               t W W D <                                                 ",
"                                            & t H W i ,               < D H D <                                                 "
};
