/* XPM */
static char *_28483e237224b808d6b105e8b05894e4TDbry8QQZXSDFiI[] = {
/* columns rows colors chars-per-pixel */
"64 64 236 2 ",
"   c None",
".  c #140E09",
"X  c #140C06",
"o  c #15110C",
"O  c #1D110B",
"+  c #1F1611",
"@  c #0E0B06",
"#  c #21120E",
"$  c #261B16",
"%  c #361E16",
"&  c #2C2118",
"*  c #39241B",
"=  c #3A2B26",
"-  c #3E312A",
";  c #37302B",
":  c #4B251A",
">  c #49251B",
",  c #522B1E",
"<  c #472B26",
"1  c #522923",
"2  c #49332A",
"3  c #55352C",
"4  c #5B352C",
"5  c #59352A",
"6  c #5D3A32",
"7  c #553833",
"8  c #433E38",
"9  c #613C33",
"0  c #683A36",
"q  c #6B3B34",
"w  c #5B443C",
"e  c #4C4131",
"r  c #6A453C",
"t  c #66453B",
"y  c #7A473D",
"u  c #6A4E2B",
"i  c #7B6039",
"p  c #7A3F41",
"a  c #574944",
"s  c #53504B",
"d  c #664C44",
"f  c #734C46",
"g  c #7B4C46",
"h  c #784846",
"j  c #695249",
"k  c #78534B",
"l  c #6E5C55",
"z  c #7C5D53",
"x  c #755954",
"c  c #7B6259",
"v  c #69655E",
"b  c #796761",
"n  c #7A756F",
"m  c #BD2C2D",
"M  c #9E2329",
"N  c #C82536",
"B  c #D42C3D",
"V  c #DA2D3E",
"C  c #D3383B",
"Z  c #C7382E",
"A  c #8B5437",
"S  c #BA5131",
"D  c #BD7E3F",
"F  c #C94838",
"G  c #D3483A",
"H  c #C95539",
"J  c #D6583B",
"K  c #D36B3E",
"L  c #8F2D44",
"P  c #A4334B",
"I  c #BF314A",
"U  c #D92D41",
"Y  c #DB3144",
"T  c #DD334B",
"R  c #DA3944",
"E  c #D93A54",
"W  c #CB3752",
"Q  c #E3354B",
"!  c #E23548",
"~  c #E53752",
"^  c #E43A52",
"/  c #E93854",
"(  c #844D4A",
")  c #89574C",
"_  c #935A4E",
"`  c #845452",
"'  c #8B5452",
"]  c #8C5B54",
"[  c #885B56",
"{  c #925D55",
"}  c #945C5B",
"|  c #995958",
" . c #9B4341",
".. c #B54A49",
"X. c #AD5752",
"o. c #9B764B",
"O. c #8C625D",
"+. c #84695D",
"@. c #84655B",
"#. c #94635B",
"$. c #9B635C",
"%. c #9A6458",
"&. c #936D51",
"*. c #A77547",
"=. c #A26A5E",
"-. c #A5685B",
";. c #B8734E",
":. c #846B61",
">. c #8B6D63",
",. c #876461",
"<. c #9D6462",
"1. c #9D6A62",
"2. c #996B66",
"3. c #8E7369",
"4. c #8B7469",
"5. c #92756A",
"6. c #96796E",
"7. c #987A6F",
"8. c #9D736B",
"9. c #967B71",
"0. c #9A7E73",
"q. c #A36B64",
"w. c #AA6E65",
"e. c #A66C6A",
"r. c #AC6E6C",
"t. c #A36664",
"y. c #B46666",
"u. c #AA7365",
"i. c #A67269",
"p. c #AC736C",
"a. c #A97669",
"s. c #B3746C",
"d. c #B6786C",
"f. c #AB7874",
"g. c #B27671",
"h. c #B47C73",
"j. c #BA7D74",
"k. c #B87C77",
"l. c #C44C46",
"z. c #D94943",
"x. c #C35447",
"c. c #DA5946",
"v. c #D25458",
"b. c #E2494C",
"n. c #E75657",
"m. c #E84755",
"M. c #D86945",
"N. c #DA784C",
"B. c #C67E55",
"V. c #C66E4B",
"C. c #E76C58",
"Z. c #E47250",
"A. c #C77572",
"S. c #DC6B63",
"D. c #B28C3D",
"F. c #AE8E4D",
"G. c #9D8176",
"H. c #9E847A",
"J. c #958176",
"K. c #BB856A",
"L. c #A1857A",
"P. c #A4897E",
"I. c #AC847B",
"U. c #BD8176",
"Y. c #BB837D",
"T. c #B0827A",
"R. c #D8874A",
"E. c #DA9B49",
"W. c #D98D57",
"Q. c #CD8F57",
"!. c #E78657",
"~. c #E89656",
"^. c #E38C4D",
"/. c #DCA94C",
"(. c #D9A854",
"). c #DBB659",
"_. c #D0A953",
"`. c #E1A54F",
"'. c #E3AD54",
"]. c #EBA95E",
"[. c #E5BB56",
"{. c #EBBC5B",
"}. c #E5B453",
"|. c #DC9A63",
" X c #C6867D",
".X c #C68264",
"XX c #EA9767",
"oX c #CDB169",
"OX c #E6A763",
"+X c #F2AA67",
"@X c #E8B867",
"#X c #F1B76A",
"$X c #EEC15E",
"%X c #F2CC5D",
"&X c #EDC662",
"*X c #E8C56A",
"=X c #F4CC64",
"-X c #F1C662",
";X c #F6D06F",
":X c #F6D066",
">X c #F2CD73",
",X c #F5D274",
"<X c #D9C16F",
"1X c #988884",
"2X c #A68C81",
"3X c #AA8E83",
"4X c #AA8F88",
"5X c #B98984",
"6X c #AD9186",
"7X c #AF9389",
"8X c #A49285",
"9X c #B2968B",
"0X c #B4998E",
"qX c #B7968A",
"wX c #B69B91",
"eX c #B99D93",
"rX c #B59390",
"tX c #A89A93",
"yX c #BCA196",
"uX c #BFA499",
"iX c #B9A39A",
"pX c #A8A39D",
"aX c #BAAAA4",
"sX c #C38A84",
"dX c #CA928D",
"fX c #C7928E",
"gX c #D29286",
"hX c #CF9591",
"jX c #D49C99",
"kX c #C1A69B",
"lX c #C4A89D",
"zX c #C1A397",
"xX c #C5AAA1",
"cX c #C7B2A9",
"vX c #C7B9B4",
"bX c #D1BCB5",
/* pixels */
"                                                                                                                                ",
"                                                                                                                                ",
"                                                                                                                                ",
"                                                                                                                                ",
"                                                        n v a s s s                                                             ",
"                                                      pXs + o . o o o +                                                         ",
"                                                    pX- @ @ @ @ . @ @ @ -                                                       ",
"                                                      & o + 7 f p 7 + o $                                                       ",
"                                                    1X= d <.g.Y.f.e.` < + v                                                     ",
"                                                    tXa k f } Y.f.` [ k 2                                                       ",
"                                                    aXb ` h ' e.<.h h } w                                                       ",
"                                                    eXO.e.r.g.g.r.p.r.e.(                                                       ",
"                                                    aXf.g.sXr.y.| k.k.r.' 5X                                                    ",
"                                                    9.8.t.s.| | | | k.$.g h                                                     ",
"                                                    3 3 ( h.s.w.y.d.s.) *                                                       ",
"                                                      + * { d.U.k.w.) h #                                                       ",
"                                                      + - g A ) ) A y ] % $                                                     ",
"                                                      & 3 u._ _ %._ =.u.< & *                                                   ",
"                                                    X O t d.U.U.U.j.A.d.y 9 > k 8X                                              ",
"                                                O & i A B.A. XgXgXgX Xd.-.Q.D.F.u.rX                                            ",
"                                            6 M V.[.[.M.R M.W.OX|.|.|.W.N.c././.E.Z l.                                          ",
"                                          _.OXx.~.$X%X^.U T z.+X:X;XOXR V B /.).}.H F ).                                        ",
"                                        oX*X*Xc.!.-X=X+XT ! ^ +X;X;X#Xb.Y ..y.S ;.H M.)._.                                      ",
"                                      u.W.@X>Xc.^.=X=X~.^ ^ ^ +X,X,X#Xn.Q x.x ) &.H ~.}.R..X                                    ",
"                                    f.V.N.^.{.M.~.%X:X!./ / m.#X,X,X#Xn.Q T ..o.o.S R.R.K S                                     ",
"                                    f.l.M.Z.K F ^.%X:XZ.W / E .X>XF.o.v.W I c.F._.S F K G m 5X                                  ",
"                                    y.N G z.Z Z ^.F.-X!.P W P [ <XoXJ.n.L p c.o.F.S m z.C N y.                                  ",
"                                  vX5XS.V B N G Z.-X).B.P W E |.oX<X_.v.~ T x._.).J M N v.A.f.                                  ",
"                                  vX5XjXjX X..V.K $X=X!./ ^ ^ XX<X<X@Xn.~ T z.].[.K ..A.hXdXT.wX                                ",
"                                  aXsXjXjXsX-.B.c.{.=X~.^ ^ / XX,X,X,XS.~ U z.E.$XM. .h.sXdXT.7X                                ",
"                                  rXfXjXhXg.A %.G '.$X].T E ^ C.,X,X>XC.T U R E.}.H  .-.sXdXY.I.aX                              ",
"                                aXrXfXjXsXt.> i G ^.[.$Xb.! Q C.>X,X>XZ.Y U z.'./.F f.} Y.sX5Xf.8X                              ",
"                                rX5XhXsXs.q X e M.M.-X-Xn.! ! n.>X>X>XZ.T U l.}.E.F 7X#.g.5X5Xk.3X                              ",
"                                f. XsXk.{ %   % R.G {.{.Z.! ! m.>X>X,XC.R U G './.x.8X9.w.k.Y.Y.f.wX                            ",
"                              1Xh.k.k.d.r #   O B.G {.{.Z.! ! Q >X>X*X!.U B J /.R.X.8XP.<.k.h.k.p.O.                            ",
"                              i.g.h.s.t.4       *.Z `.[.^.V ! ! #X>X*XW.U B G /.R.-.H.J.2.t.f.k.p.#.+.                          ",
"                              q.g.p.q._ :       *.F R.}.^.C V U @X&X*XR.N N F _.R.| 5.b 4.#.i.g.p.$.>.                          ",
"                            a w.f.p.<.y         -.s.B.(.~.R U T ].*X&XR.N m H .Xu.$.:.c l z t.p.p.q.#.                          ",
"                            f t.s.e.{ q       6 u.h.k.U.K.h.A.d.d.K.K.K.d.u.a.h.u.%.z l b b ] q.a.i.] 9.                        ",
"                            ' e.q.} #.k       t 1.s.h.h.h.h.h.p.O.1.s.u.u.u.d.a.-.{ z l     j [ q.i.#.>.                        ",
"                          ; } t.| ' H.x       9 %.=.u.p.s.p.t.%.( %.a.a.u.u.u.=.%.#.+.j     j f #.$.#.[                         ",
"                          - } <.' O.          x q.%.%.=.=.=.-.{ ] %.1.i.=.%.&.%.i.6X4.j     a a g ] #.]                         ",
"                          7 <.} `             c uXeXI.1.%.$.{ ) g _ O.] &.1.Y.eXzXeXJ.d       e d k #.#.x                       ",
"                          f r.} ,.          2 8XwXuXkXlXyX0X9X7X3XP.qXeXkXlXkXzXyXyXwXc         2 r { q.`                       ",
"                          ` f.} 4.          1XfXxXlXuXuXuXuXxXxXlXlXuXkXkXzXuXzXlXzX0X4.          t { 2.O.                      ",
"                          h f.e.x v       2 wXiXuXlXlXxXlXkXxXcXzXcXyXkXkXkXkXzXuXzX7X6.        2 k <.q.2.                      ",
"                          f f.r.t.x       d 7XeXyXuXkXuXuXuXuXbXyXvXyXuXuXyXyXuXyXeX7XJ.        7 } q.t.O.                      ",
"                          w r.r.t.' $     b 7XwXyXuXkXuXyXyXyXcXyXcXuXyXwXyXyXyXwXwX6X5.      < h } ' t.O.                      ",
"                          < e.<.9 ' 7     >.2X0XeXeXeXuXyXyXqXkXyXyXcX0X9XwXyXyX0X9X3X3.      3 ( h ' <.                        ",
"                          = ' <.1 q       ,.4X0XeXeXeXeXeXeX0X9X7X9XwX7X7X0X0X0X0X9X2X+.      r h 4 } }                         ",
"                            7 [ h         ,.6X0X0XwXeXeXwXeX6XL.H.P.7X6X6X0X0X0X9X6X3X        2 p ( ,.                          ",
"                            & =           3.6X9X0X9XwXeXwXwX7XG.5.P.6XP.P.7X9X9X9X6X3Xd                                         ",
"                                          >.7X9X9X9X9X0X9X9X3X5.j 5.L.L.P.6X7X7X3X3X2Xw                                         ",
"                                          @.P.7X9X9X0X9X7X3XP.:.e J.G.L.P.P.6XP.3X3X0.6                                         ",
"                                          z P.6X3X3X3X3X3XP.L.+.z G.G.L.L.L.P.P.P.L.3.3                                         ",
"                                          z L.P.3X3X3XP.I.L.0.+.c 6.J.G.L.P.P.P.P.P.3.3                                         ",
"                                          z L.P.P.P.L.L.L.G.7.@.t 4.5.7.G.L.L.L.L.L.3.5                                         ",
"                                          k G.P.L.P.L.G.G.G.7.c 6 +.3.5.7.0.L.L.G.G.3.5                                         ",
"                                          f G.L.L.L.G.G.0.7.3.c > 6 +.3.5.7.7.0.G.G.5.4                                         ",
"                                          d G.G.0.L.G.0.7.3.>.r   , 6 @.5.5.7.7.G.G.5.4                                         ",
"                                          k 7.0.G.G.7.7.5.>.t         4 f O.7.7.7.7.+.,                                         ",
"                                          r 6.9.7.7.7.5.@.9 :         9 9 4 5 t r t 5 ,                                         ",
"                                          > z 6.7.7.>.t , : :         9 9 4 > : , , 1                                           ",
"                                          > , 2 9 9 3 > : :           9 4 1 : : , 1 1                                           "
};
